<svg viewBox="0 0 320 220" xmlns="http://www.w3.org/2000/svg">
  <rect width="320" height="220" fill="#F6F5F1"/>
  <circle cx="160" cy="200" r="120" fill="#EFE7D8"/>
  <rect x="55" y="158" width="210" height="8" fill="#8C5F22"/>
  <g>
    <rect x="150" y="150" width="40" height="10" rx="3" fill="#5B6B72"/>
    <rect x="163" y="95" width="14" height="60" fill="#3D6C8C"/>
    <path d="M150 95 h40 v14 h-40 z" fill="#5B6B72"/>
    <circle cx="170" cy="80" r="16" fill="none" stroke="#5B6B72" stroke-width="5"/>
    <path d="M170 64 v-10" stroke="#5B6B72" stroke-width="5"/>
    <circle cx="170" cy="54" r="4" fill="#B2483C"/>
  </g>
  <g>
    <ellipse cx="95" cy="150" rx="30" ry="12" fill="none" stroke="#5B6B72" stroke-width="4"/>
    <path d="M96 118 q18 0 18 20 q0 8 -6 12" fill="none" stroke="#5B6B72" stroke-width="4"/>
    <circle cx="86" cy="146" r="4" fill="#3E7C5A" opacity=".7"/>
    <circle cx="100" cy="150" r="3" fill="#C08A2E" opacity=".7"/>
    <circle cx="108" cy="144" r="3.5" fill="#B2483C" opacity=".6"/>
  </g>
  <g>
    <rect x="225" y="110" width="16" height="48" rx="3" fill="#fff" stroke="#5B6B72" stroke-width="3"/>
    <rect x="225" y="128" width="16" height="30" fill="#B2483C" opacity=".55"/>
    <rect x="248" y="110" width="16" height="48" rx="3" fill="#fff" stroke="#5B6B72" stroke-width="3"/>
    <rect x="248" y="135" width="16" height="23" fill="#3D6C8C" opacity=".55"/>
  </g>
</svg>
