<svg viewBox="0 0 320 220" xmlns="http://www.w3.org/2000/svg">
  <rect width="320" height="220" fill="#F6F5F1"/>
  <circle cx="160" cy="200" r="120" fill="#EFE7D8"/>
  <circle cx="160" cy="90" r="34" fill="#E3C79A"/>
  <path d="M126 100 q34 26 68 0 v18 q-34 22 -68 0 z" fill="#FFFFFF"/>
  <rect x="118" y="118" width="84" height="80" rx="18" fill="#3D6C8C"/>
  <rect x="140" y="128" width="10" height="40" fill="#fff"/>
  <rect x="125" y="143" width="40" height="10" fill="#fff"/>
  <circle cx="160" cy="60" r="10" fill="#B2483C"/>
  <path d="M150 60 h20 M160 50 v20" stroke="#fff" stroke-width="3"/>
  <path d="M96 150 q-20 10 -20 34 q0 20 18 20" fill="none" stroke="#8C5F22" stroke-width="6" stroke-linecap="round"/>
  <path d="M224 150 q20 10 20 34 q0 20 -18 20" fill="none" stroke="#8C5F22" stroke-width="6" stroke-linecap="round"/>
  <circle cx="96" cy="204" r="8" fill="#8C5F22"/>
</svg>
